# xmcd CD database file
#
# Track frame offsets:
#	150
#	18374
#	40960
#	59183
#
# Disc length: 1087 seconds
#
# Revision: 0
# Processed by: cddbd v1.5.1PL2 Copyright (c) Steve Scherf et al.
# Submitted via: CDex 1.51
#
DISCID=33043d04
DTITLE=村田あゆみ - Summer vacation
DYEAR=2005
DGENRE=Anime
TTITLE0=村田あゆみ - Summer vacation
TTITLE1=村田あゆみ - OZ
TTITLE2=村田あゆみ - Summer vacation 〜Original Karaoke〜
TTITLE3=村田あゆみ - OZ 〜Original Karaoke〜
EXTD=YEAR: 2005
EXTT0=
EXTT1=
EXTT2=
EXTT3=
PLAYORDER=
